<svg width="125" height="125" viewBox="0 0 125 125" fill="none" xmlns="http://www.w3.org/2000/svg">
<circle cx="62.5" cy="62.5" r="62.5" fill="white"/>
<path d="M86 36H35V85C35 96.0457 43.9543 105 55 105H66C77.0457 105 86 96.0457 86 85V36Z" fill="#FED008"/>
<path d="M52.801 49.9676V86.3568M69.178 86.3568V49.9676M85.555 49.9676V36H35V89C35 97.2843 41.7157 104 50 104H70.555C78.8392 104 85.555 97.2843 85.555 89V86.3568M85.555 49.9676H93C98.5228 49.9676 103 54.4447 103 59.9676V76.3568C103 81.8796 98.5228 86.3568 93 86.3568H85.555M85.555 49.9676V86.3568" stroke="black" stroke-width="6"/>
<path fill-rule="evenodd" clip-rule="evenodd" d="M56.5778 40.9286C54.8536 41.6198 52.9712 42 51 42C49.9202 42 48.867 41.8859 47.8519 41.6691C47.9488 42.0972 48 42.5426 48 43C48 46.3137 45.3137 49 42 49C38.9896 49 36.497 46.7829 36.0659 43.8925C31.4997 43.2011 28 39.2592 28 34.5C28 29.7223 31.5269 25.7683 36.1192 25.0996C37.0532 17.7126 43.3595 12 51 12C54.302 12 57.3549 13.067 59.8326 14.8749C61.4147 13.6971 63.3759 13 65.5 13C69.3742 13 72.7068 15.3191 74.1852 18.6449C75.3836 18.2266 76.6664 18 78 18C84.6274 18 90 23.5964 90 30.5C90 37.4036 84.6274 43 78 43C74.8185 43 71.9262 41.7103 69.7786 39.6054C68.0359 41.6808 65.422 43 62.5 43C60.2604 43 58.2019 42.225 56.5778 40.9286Z" fill="white"/>
<path d="M56.5778 40.9286L57.8256 39.3656L56.9151 38.6388L55.8337 39.0722L56.5778 40.9286ZM47.8519 41.6691L48.2696 39.7132L45.2103 39.0598L45.9013 42.1109L47.8519 41.6691ZM36.0659 43.8925L38.0441 43.5975L37.8261 42.1362L36.3653 41.915L36.0659 43.8925ZM36.1192 25.0996L36.4074 27.0787L37.9126 26.8596L38.1034 25.3505L36.1192 25.0996ZM59.8326 14.8749L58.6537 16.4905L59.8445 17.3595L61.0269 16.4792L59.8326 14.8749ZM74.1852 18.6449L72.3577 19.4573L73.1057 21.1399L74.8442 20.5332L74.1852 18.6449ZM69.7786 39.6054L71.1785 38.1771L69.6359 36.6652L68.2469 38.3193L69.7786 39.6054ZM51 44C53.2304 44 55.365 43.5694 57.3219 42.7851L55.8337 39.0722C54.3421 39.6701 52.712 40 51 40V44ZM47.4341 43.625C48.5857 43.8709 49.7789 44 51 44V40C50.0614 40 49.1483 39.9009 48.2696 39.7132L47.4341 43.625ZM50 43C50 42.393 49.932 41.7994 49.8025 41.2273L45.9013 42.1109C45.9656 42.395 46 42.6922 46 43H50ZM42 51C46.4183 51 50 47.4183 50 43H46C46 45.2091 44.2091 47 42 47V51ZM34.0878 44.1875C34.6628 48.0432 37.9843 51 42 51V47C39.9948 47 38.3311 45.5226 38.0441 43.5975L34.0878 44.1875ZM26 34.5C26 40.263 30.2372 45.0327 35.7665 45.8699L36.3653 41.915C32.7622 41.3694 30 38.2555 30 34.5H26ZM35.8311 23.1205C30.2701 23.9302 26 28.7147 26 34.5H30C30 30.7298 32.7837 27.6064 36.4074 27.0787L35.8311 23.1205ZM51 10C42.3392 10 35.1938 16.4747 34.135 24.8488L38.1034 25.3505C38.9126 18.9504 44.3797 14 51 14V10ZM61.0115 13.2593C58.203 11.21 54.7399 10 51 10V14C53.8642 14 56.5068 14.9239 58.6537 16.4905L61.0115 13.2593ZM65.5 11C62.9311 11 60.5537 11.8447 58.6383 13.2707L61.0269 16.4792C62.2757 15.5495 63.8208 15 65.5 15V11ZM76.0128 17.8324C74.225 13.8108 70.1929 11 65.5 11V15C68.5555 15 71.1886 16.8274 72.3577 19.4573L76.0128 17.8324ZM74.8442 20.5332C75.8345 20.1876 76.8946 20 78 20V16C76.4382 16 74.9328 16.2656 73.5262 16.7566L74.8442 20.5332ZM78 20C83.4467 20 88 24.6233 88 30.5H92C92 22.5696 85.8082 16 78 16V20ZM88 30.5C88 36.3767 83.4467 41 78 41V45C85.8082 45 92 38.4304 92 30.5H88ZM78 41C75.3738 41 72.9757 39.9385 71.1785 38.1771L68.3787 41.0338C70.8767 43.4822 74.2632 45 78 45V41ZM62.5 45C66.0378 45 69.2038 43.4001 71.3102 40.8916L68.2469 38.3193C66.868 39.9615 64.8062 41 62.5 41V45ZM55.3301 42.4917C57.2957 44.0608 59.7909 45 62.5 45V41C60.73 41 59.108 40.3893 57.8256 39.3656L55.3301 42.4917Z" fill="black"/>
</svg>
